<svg width="75" height="75" viewBox="0 0 75 75" fill="none" xmlns="http://www.w3.org/2000/svg">
<path d="M22.6517 73.6743C22.6517 73.6743 13.9117 55.4043 11.1917 48.9943C8.45174 42.5243 0.781738 22.1243 0.781738 22.1243C0.781738 22.1243 18.6117 13.3443 24.9717 10.6443C31.5017 7.87432 52.3317 0.244324 52.3317 0.244324C52.3317 0.244324 62.5417 20.2243 65.2217 26.5343C68.0117 33.1143 74.2117 51.7943 74.2117 51.7943C74.2117 51.7943 55.1417 62.3643 48.6117 65.1343C42.2617 67.8343 22.6517 73.6743 22.6517 73.6743Z" fill="#AA391B"/>
<path d="M53.2138 73.2752C53.2138 73.2752 34.1138 64.3652 27.6338 61.8152C21.0938 59.2352 1.12378 52.7152 1.12378 52.7152C1.12378 52.7152 10.0538 33.5652 12.5938 27.1452C15.2038 20.5452 21.6938 0.635193 21.6938 0.635193C21.6938 0.635193 40.8938 9.58519 47.2738 12.0952C53.9238 14.7152 73.7838 21.1952 73.7838 21.1952C73.7838 21.1952 64.9238 40.1752 62.3238 46.7752C59.7838 53.1852 53.2138 73.2752 53.2138 73.2752Z" fill="#B51808"/>
<path d="M37.4762 67.8187C54.5307 67.8187 68.3562 53.9932 68.3562 36.9387C68.3562 19.8841 54.5307 6.05865 37.4762 6.05865C20.4216 6.05865 6.59619 19.8841 6.59619 36.9387C6.59619 53.9932 20.4216 67.8187 37.4762 67.8187Z" fill="#E0A648"/>
<path d="M37.5 64C52.6878 64 65 51.9117 65 37C65 22.0883 52.6878 10 37.5 10C22.3122 10 10 22.0883 10 37C10 51.9117 22.3122 64 37.5 64Z" fill="#F7DFBD"/>
<path d="M32.0786 28.699C30.5117 28.5826 29.0522 28.0812 27.6375 27.5977C26.9391 27.338 26.2407 27.0067 25.4975 26.9978C24.7543 26.9888 24.0112 27.2127 23.3038 27.4723C21.898 28.0275 20.5012 28.5916 19.194 29.2721C18.5672 29.5675 17.9583 30.0331 17.2868 30.4182C16.9555 30.6151 16.6063 30.7942 16.2482 30.9643C15.89 31.1166 15.4871 31.2688 15.0752 31.224V31.1345C15.4333 31.036 15.7199 30.8032 16.0154 30.5793C16.3108 30.3555 16.5884 30.0958 16.8749 29.8541C17.448 29.3705 18.0121 28.8423 18.7463 28.4304C19.4447 28.0543 20.1789 27.7857 20.9131 27.544C21.6473 27.2933 22.4084 27.1142 23.1784 27.0067C23.9485 26.8903 24.7096 26.7829 25.4885 26.7202C26.2765 26.6575 27.0734 26.7471 27.8434 26.8903C29.3566 27.2574 30.7266 27.92 32.1054 28.6184L32.0786 28.699Z" fill="#B51808"/>
<path d="M28.4254 31.7075C28.2911 32.9073 27.7449 34.0445 26.9301 34.9309C26.5003 35.3607 25.9899 35.7009 25.5243 36.0501C25.0498 36.3993 24.6021 36.7933 24.0828 37.1156C23.5813 37.4559 22.9635 37.6976 22.3547 37.7872C21.7816 37.8857 21.1996 37.9842 20.5818 37.9931C19.9819 37.9931 19.3193 37.9215 18.7373 37.6439C18.1553 37.3753 17.6897 36.9724 17.3047 36.5157L17.3584 36.4441C17.9136 36.659 18.4418 36.8918 18.9701 36.9813C19.4894 37.0888 20.0088 37.0888 20.5639 37.044L22.2651 36.9545C22.8113 36.9097 23.3306 36.847 23.8768 36.6769C24.4141 36.5157 24.9244 36.2203 25.3363 35.8263C25.7571 35.4323 26.0526 34.9309 26.357 34.4563C27.0107 33.5431 27.6374 32.6387 28.3448 31.6717L28.4254 31.7075Z" fill="#B51808"/>
<path d="M31.6577 31.5643C31.6308 32.1194 31.4159 32.5402 31.0757 32.8626C30.8877 33.0058 30.637 33.1043 30.4758 33.2655C30.3146 33.4267 30.2251 33.6416 30.1534 33.8744C30.037 34.3489 29.8401 34.7429 29.6341 35.1279C29.3924 35.495 29.1238 35.8174 28.7298 36.1755L28.6492 36.1486C28.488 35.6204 28.6044 35.101 28.8014 34.6623C29.0342 34.2415 29.3476 33.8654 29.7595 33.5878C29.9565 33.4446 30.1355 33.2924 30.2519 33.0864C30.3683 32.8894 30.3952 32.6119 30.4937 32.397C30.7175 31.9851 31.0667 31.6896 31.5861 31.5016L31.6577 31.5643Z" fill="#B51808"/>
<path d="M33.1531 32.7372C33.18 33.2923 32.9651 33.7311 32.6338 34.0534C32.4547 34.1967 32.195 34.2862 32.0339 34.4474C31.8637 34.5996 31.7742 34.8145 31.7026 35.0383C31.5772 35.5039 31.3534 35.889 31.1385 36.2471C30.8788 36.5963 30.6102 36.8828 30.2341 37.241L30.1446 37.2231C29.9655 36.7038 30.1088 36.1755 30.3237 35.7457C30.5744 35.3338 30.8967 34.9936 31.3175 34.7339C31.5145 34.5996 31.7026 34.4563 31.81 34.2594C31.9264 34.0624 31.9533 33.7938 32.0428 33.5878C32.2577 33.1849 32.58 32.9073 33.0725 32.6835L33.1531 32.7372Z" fill="#B51808"/>
<path d="M45.0528 31.3404C45.5542 31.2598 46.0915 31.5463 46.4228 31.9313C46.763 32.3253 46.9779 32.7819 47.0853 33.2386C47.1838 33.7042 47.1659 34.1787 47.3002 34.5996C47.4256 35.0383 47.7211 35.3427 48.1329 35.495C48.9478 35.7904 49.7984 36.0053 50.649 36.256C51.4906 36.5426 52.3681 36.8291 53.174 37.3574L53.1471 37.4469C52.207 37.4827 51.2937 37.4021 50.3893 37.1783C49.9416 37.0619 49.5029 36.9007 49.0731 36.6948C48.6433 36.5067 48.2225 36.256 47.8643 35.9068C47.4793 35.5935 47.2197 35.1279 47.0316 34.707C46.8346 34.2862 46.575 33.8833 46.378 33.4803C45.993 32.6655 45.8318 31.9313 45.0349 31.421L45.0528 31.3404Z" fill="#B51808"/>
<path d="M48.7328 31.5284C49.1088 32.0209 49.4043 32.3343 49.664 32.8088C49.7714 33.0506 49.843 33.3461 50.0132 33.561C50.1833 33.7848 50.425 33.9281 50.6757 34.0445C51.204 34.2594 51.6607 34.528 52.1084 34.8145C52.5382 35.1369 52.9411 35.4861 53.3261 35.9696L53.2903 36.0501C52.6635 36.0949 52.0905 35.889 51.589 35.6204C51.1055 35.307 50.6668 34.922 50.3534 34.4205C50.1922 34.1698 50.0221 33.946 49.7983 33.7669C49.5834 33.5878 49.2789 33.4714 49.0641 33.2655C48.6611 32.8536 48.3925 32.1642 48.6432 31.5464L48.7328 31.5284Z" fill="#B51808"/>
<path d="M48.8044 29.7735C48.8492 29.2004 49.1447 28.69 49.4849 28.2513C49.8341 27.8126 50.255 27.4455 50.7385 27.1768C51.2309 26.9172 51.7682 26.7739 52.2785 26.5948C52.7889 26.4247 53.2814 26.2098 53.8186 26.0576C54.3648 25.8875 54.9826 25.9054 55.5198 26.0307C56.075 26.1382 56.6033 26.3262 57.0868 26.559C57.5703 26.8008 58.0269 27.0694 58.4567 27.347C58.9044 27.5977 59.3073 27.9021 59.8267 27.9379L59.8535 28.0275C59.3163 28.2961 58.6895 28.1349 58.1791 27.9916C57.6509 27.8394 57.1674 27.6245 56.6928 27.4276C55.7616 27.0067 54.8573 26.5948 53.8813 26.5411C53.3799 26.5232 52.8516 26.6217 52.3949 26.8545C51.9293 27.0784 51.5443 27.4634 51.1593 27.7857C50.3714 28.4214 49.5745 28.9766 48.885 29.7914L48.8044 29.7735Z" fill="#B51808"/>
<path d="M17.3136 29.9436C17.5196 31.0807 17.9315 32.0567 18.5582 32.8446C18.8448 33.2297 19.2477 33.6505 19.7849 33.6415C20.3221 33.6594 20.7788 33.2834 21.1459 32.8805C21.5041 32.4686 21.7906 32.0119 22.0055 31.5553C22.2025 31.0897 22.3099 30.5972 22.2383 30.1853C22.1845 29.7376 21.9876 29.4959 21.5041 29.1198C21.0743 28.7796 20.6355 28.4304 20.1252 28.2423L20.1162 28.1528C20.743 28.0454 21.3339 28.2871 21.8801 28.5199L22.283 28.7259C22.4173 28.8243 22.5875 28.9139 22.7039 29.0572C22.9725 29.3168 23.1247 29.6839 23.1963 30.0242C23.3306 30.7494 23.071 31.4031 22.7665 31.9403C22.4621 32.4954 21.9965 32.9252 21.4772 33.2476C20.9758 33.5609 20.4385 33.8654 19.8118 33.9281C19.194 34.0086 18.5224 33.7669 18.03 33.355C17.0988 32.4686 16.8122 31.0539 17.242 29.9346L17.3136 29.9436Z" fill="#B51808"/>
<path d="M54.8572 27.9827C55.2064 28.6542 55.3407 29.3168 55.475 29.8988C55.5198 30.1853 55.5466 30.5345 55.8063 30.7046C56.066 30.8748 56.4152 30.7942 56.6838 30.642C57.2479 30.2928 57.7493 29.9346 58.1791 29.5048C58.6268 29.0929 59.0745 28.6542 59.4326 28.0453H59.5221C59.737 28.8243 59.352 29.6123 58.8596 30.1764C58.5909 30.4539 58.2596 30.6778 57.9194 30.83C57.5702 31.0001 57.212 31.0986 56.8181 31.1076C56.4331 31.1255 56.048 31.1076 55.6809 30.9553C55.3138 30.8031 54.9736 30.4987 54.7855 30.1495C54.4632 29.4242 54.5169 28.6811 54.7766 27.9827H54.8572Z" fill="#B51808"/>
<path d="M36.278 40.4913C36.1974 41.0106 36.0362 41.4941 35.9288 41.9597C35.8124 42.4074 35.7586 42.8999 35.8482 43.0521C35.884 43.267 36.5108 43.4102 36.9853 43.4282H37.7554C37.8897 43.4371 38.0329 43.4282 38.221 43.5356C38.4358 43.6699 38.4269 43.9654 38.3911 44.1086C38.2299 44.7175 37.9344 45.1115 37.6479 45.5413C37.3703 45.9621 37.0211 46.3829 36.9047 46.6694C36.8331 46.7859 36.8421 46.9918 36.851 47.1171C36.86 47.2067 36.8779 47.2694 37.039 47.332C37.3703 47.4395 37.8897 47.3499 38.3194 47.1082L38.3821 47.1709C38.1135 47.6365 37.621 48.0215 36.9495 48.0304C36.6182 48.0573 36.1437 47.7887 36.0183 47.3768C35.9467 47.1709 35.9377 47.0455 35.9198 46.8664C35.9198 46.6963 35.9377 46.5083 36.0004 46.3382C36.269 45.6845 36.654 45.3891 36.9764 45.004C37.2898 44.628 37.6837 44.2698 37.9165 43.9385C37.9523 43.849 37.9702 43.84 37.9702 43.8221C37.9523 43.7774 37.8359 43.7326 37.7195 43.7236C37.4867 43.6878 37.236 43.6968 36.9853 43.7147C36.7346 43.7326 36.475 43.7774 36.2153 43.8132C35.9377 43.8311 35.5617 43.8311 35.2662 43.5177C34.9797 43.2043 34.9707 42.8014 35.0155 42.5149C35.0602 42.2194 35.1498 41.9508 35.2751 41.709C35.5079 41.2255 35.8124 40.8047 36.1974 40.4376L36.278 40.4913Z" fill="#B51808"/>
<path d="M38.5344 39.9003C39.0985 39.7391 39.6716 39.7391 40.2446 39.8197C40.5311 39.8645 40.8177 39.9361 41.1131 40.0794C41.2654 40.1421 41.4176 40.2495 41.5608 40.4017C41.731 40.5629 41.8026 40.9569 41.6862 41.1807C41.3101 41.8254 40.7818 42.0045 40.3879 42.3984C40.1909 42.5865 40.0029 42.7745 39.8506 42.9983C39.7074 43.2132 39.6178 43.4639 39.6716 43.6341C39.7969 44.0459 40.1372 44.4847 40.4506 44.8518C40.6117 45.0309 40.7998 45.2099 40.9609 45.2995C41.0326 45.3353 41.328 45.5233 41.4265 45.7561C41.5519 45.9979 41.5519 46.2665 41.5071 46.4635C41.2922 47.2246 40.7818 47.6185 40.361 47.9498C40.1551 48.1199 39.967 48.2543 39.8954 48.4065C39.8148 48.5676 39.8775 48.8452 39.9581 49.1138L39.8865 49.1586C39.6895 48.9706 39.4567 48.7378 39.4388 48.3438C39.4567 47.9409 39.6984 47.6723 39.8596 47.4484C40.0387 47.2156 40.1998 47.0276 40.3252 46.8306C40.4506 46.6336 40.558 46.4187 40.567 46.2755C40.5759 46.2038 40.567 46.177 40.567 46.177C40.549 46.1591 40.5938 46.1859 40.4416 46.0695C40.1461 45.8546 39.9581 45.6218 39.779 45.3711C39.4388 44.8787 39.1612 44.3414 39.1791 43.652C39.1881 43.267 39.4388 43.0252 39.6089 42.8103L40.1819 42.1925C40.5311 41.7985 40.8982 41.2702 40.9878 40.9121C40.9699 40.8763 40.9788 40.9748 40.9609 40.93C40.9162 40.8942 40.8445 40.8405 40.746 40.7867C40.549 40.6793 40.3162 40.5897 40.0745 40.5002L38.5344 39.9988V39.9003Z" fill="#B51808"/>
</svg>
