<?xml version="1.0" encoding="utf-8"?>
<!-- Generator: Adobe Illustrator 24.1.1, SVG Export Plug-In . SVG Version: 6.00 Build 0)  -->
<svg version="1.1" id="Calque_1" xmlns="http://www.w3.org/2000/svg" xmlns:xlink="http://www.w3.org/1999/xlink" x="0px" y="0px"
	 viewBox="0 0 145 18" style="enable-background:new 0 0 145 18;" xml:space="preserve">
<style type="text/css">
	.st0{fill:none;stroke:#FEFEFE;stroke-width:2;stroke-linecap:round;}
	.st1{fill:#FEFEFE;}
	.st2{fill-rule:evenodd;clip-rule:evenodd;fill:#FEFEFE;}
</style>
<path class="st0" d="M1,1h143"/>
<path class="st1" d="M53.9,1.7c5.7,1.4,12.2,1.4,12.2,8.6c0,3.9,2.5,7.1,6.4,7.1s6.4-3.2,6.4-7.1c0-7.2,5-7.2,12.2-8.6H53.9z
	 M72.5,14.6c-3.2,0-5.7-2.6-5.7-5.7c0-3.2,2.6-5.7,5.7-5.7s5.7,2.6,5.7,5.7C78.2,12,75.7,14.6,72.5,14.6z"/>
<path class="st2" d="M70.7,13.6c0.3,0,0.4-0.1,0.4-0.3c0-0.1,0-0.5,0-1c-1.6,0.4-2-0.8-2-0.8c-0.3-0.7-0.6-0.9-0.6-0.9
	c-0.5-0.4,0-0.4,0-0.4c0.6,0,0.9,0.6,0.9,0.6c0.5,0.9,1.4,0.6,1.7,0.5c0.1-0.4,0.2-0.6,0.4-0.8c-1.3-0.1-2.6-0.6-2.6-2.9
	c0-0.6,0.2-1.2,0.6-1.6c-0.1-0.1-0.3-0.7,0.1-1.5c0,0,0.5-0.2,1.6,0.6c0.5-0.1,1-0.2,1.5-0.2c0.5,0,1,0.1,1.5,0.2
	c1.1-0.8,1.6-0.6,1.6-0.6c0.3,0.8,0.1,1.4,0.1,1.5c0.4,0.4,0.6,0.9,0.6,1.6c0,2.2-1.4,2.7-2.7,2.9c0.2,0.2,0.4,0.5,0.4,1.1
	c0,0.8,0,1.4,0,1.6c0,0.2,0.1,0.3,0.4,0.3H70.7z"/>
</svg>
