<svg width="20" height="20" viewBox="0 0 20 20" fill="none" xmlns="http://www.w3.org/2000/svg">
<path d="M14.0166 14.3178C14.0239 13.6594 13.456 13.0915 12.7976 13.0988L8.18738 13.1468L9.68399 11.8977C9.68951 11.893 9.69519 11.8883 9.70035 11.8831C9.99629 11.6435 10.1678 11.2952 10.1718 10.9208C10.1783 10.2632 9.61093 9.69584 8.95261 9.70167C8.73478 9.70396 8.51756 9.76698 8.32283 9.88401C8.31183 9.88972 8.30134 9.89643 8.29106 9.90335C8.18517 9.97164 8.08975 10.0563 8.00659 10.1554L4.40346 13.4004C4.06184 13.6347 3.85635 14.0157 3.85176 14.4246C3.84825 14.7543 3.97607 15.0522 4.21399 15.2976C4.22155 15.3069 4.22935 15.3159 4.23801 15.3246C4.2419 15.3284 4.24579 15.3323 4.2498 15.3359L7.846 18.5594C7.92261 18.6523 8.01348 18.7332 8.11183 18.7973C8.13296 18.8141 8.15624 18.8274 8.18061 18.8375C8.36577 18.9411 8.5726 18.9949 8.78213 18.9924C9.46104 18.9853 10.0197 18.4267 10.0273 17.7473C10.0312 17.3773 9.86448 17.0292 9.57645 16.7956C9.57135 16.7905 9.56565 16.7857 9.55995 16.7809L8.14753 15.6113L12.7723 15.563C13.4512 15.5554 14.0099 14.9968 14.0166 14.3178Z" fill="#FEFEFE"/>
<path d="M10.3166 8.1015C10.3107 8.10643 10.3051 8.11131 10.2998 8.11659C10.004 8.35595 9.83306 8.70456 9.82888 9.07856C9.82563 9.40762 9.95046 9.71548 10.181 9.94597C10.4113 10.1763 10.7192 10.3011 11.048 10.2976C11.2669 10.2956 11.4836 10.2329 11.6767 10.1164C11.6878 10.1103 11.6985 10.1039 11.7093 10.0969C11.8152 10.029 11.9103 9.94423 11.9939 9.8447L15.5972 6.60009C15.9389 6.36604 16.145 5.98526 16.1488 5.57618C16.1525 5.24496 16.0303 4.92253 15.7854 4.70118C15.7751 4.68836 15.7628 4.67565 15.7511 4.66471L12.155 1.44109C12.0783 1.34936 11.9892 1.2691 11.8914 1.20523C11.8691 1.18727 11.8447 1.17298 11.8188 1.16219C11.6337 1.05896 11.4272 1.00563 11.219 1.00782C10.5396 1.01517 9.98103 1.57371 9.97414 2.25266C9.97024 2.62293 10.1355 2.97051 10.4227 3.20277C10.4286 3.20858 10.4348 3.2139 10.4412 3.21931L11.8539 4.3892L7.22901 4.43752C6.90007 4.44049 6.58944 4.57175 6.35416 4.80702C6.11885 5.04234 5.98734 5.35322 5.98392 5.6822C5.98046 6.01147 6.10525 6.31937 6.33563 6.54974C6.56589 6.78 6.87383 6.90483 7.20289 6.90157L11.8132 6.85284L10.3166 8.1015Z" fill="#FEFEFE"/>
</svg>
