<?xml version="1.0" encoding="utf-8"?>
<!-- Generator: Adobe Illustrator 24.1.1, SVG Export Plug-In . SVG Version: 6.00 Build 0)  -->
<svg version="1.1" id="Calque_1" xmlns="http://www.w3.org/2000/svg" xmlns:xlink="http://www.w3.org/1999/xlink" x="0px" y="0px"
	 viewBox="0 0 145.5 18.4" style="enable-background:new 0 0 145.5 18.4;" xml:space="preserve">
<style type="text/css">
	.st0{fill:none;stroke:#FEFEFE;stroke-width:2;stroke-linecap:round;}
	.st1{fill:#FEFEFE;}
	.st2{fill:#FFFFFF;filter:url(#Adobe_OpacityMaskFilter);}
	.st3{mask:url(#mask0_269_143_1_);}
	.st4{fill:#FFFFFF;}
	.st5{fill:#202020;}
	.st6{fill:#FF5A16;}
</style>
<path class="st0" d="M1,1.4h143"/>
<path class="st1" d="M53.9,2.1c5.7,1.4,12.2,1.4,12.2,8.6c0,3.9,2.5,7.1,6.4,7.1s6.4-3.2,6.4-7.1c0-7.2,5-7.2,12.2-8.6H53.9z
	 M72.5,15c-3.2,0-5.7-2.6-5.7-5.7c0-3.2,2.6-5.7,5.7-5.7s5.7,2.6,5.7,5.7C78.2,12.4,75.7,15,72.5,15z"/>
<defs>
	<filter id="Adobe_OpacityMaskFilter" filterUnits="userSpaceOnUse" x="69.1" y="6.1" width="7.6" height="6.6">
		<feColorMatrix  type="matrix" values="1 0 0 0 0  0 1 0 0 0  0 0 1 0 0  0 0 0 1 0"/>
	</filter>
</defs>
<mask maskUnits="userSpaceOnUse" x="69.1" y="6.1" width="7.6" height="6.6" id="mask0_269_143_1_">
	<path class="st2" d="M76.6,6.1h-7.6v6.6h7.6V6.1z"/>
</mask>
<g class="st3">
	<path class="st4" d="M72.1,12.7c-1.1,0-2-0.5-2.5-1.5c-0.5-0.9-0.5-1.8-0.5-2.8c0-0.6,0.2-1.1,0.5-1.5c0.3-0.4,0.7-0.6,1.2-0.7
		c0.5-0.1,1.2-0.1,1.9-0.1c1.2,0,1.5,0,1.9,0.1c0.6,0.1,1.1,0.3,1.5,0.7c0.4,0.4,0.6,0.9,0.6,1.6v0.1c0,1.1-0.6,1.9-1.6,2.2
		c-0.1,0.2-0.2,0.3-0.3,0.5l0,0c-0.3,0.5-1.1,1.4-2.5,1.4L72.1,12.7L72.1,12.7z"/>
	<path class="st4" d="M74.6,6.7c-0.4,0-0.7-0.1-1.9-0.1c-0.7,0-1.4,0-1.9,0.1c-0.7,0.1-1.2,0.7-1.2,1.7s0,1.8,0.4,2.5
		c0.4,0.8,1.2,1.3,2.1,1.3h0.2c1.2,0,1.8-0.7,2.1-1.2c0.1-0.2,0.2-0.5,0.3-0.7c0.8-0.1,1.4-0.8,1.4-1.7V8.4
		C76.2,7.4,75.6,6.8,74.6,6.7L74.6,6.7z"/>
	<path class="st5" d="M69.6,8.4c0-1,0.6-1.6,1.2-1.7c0.5-0.1,1.1-0.1,1.9-0.1c1.2,0,1.5,0,1.9,0.1c1,0.1,1.6,0.8,1.6,1.8v0.1
		c0,0.9-0.6,1.6-1.4,1.7c-0.1,0.2-0.2,0.5-0.3,0.7c-0.3,0.5-0.9,1.2-2.1,1.2h-0.2c-0.9,0-1.7-0.4-2.1-1.3
		C69.6,10.2,69.6,9.4,69.6,8.4"/>
	<path class="st4" d="M70.1,8.4c0,1,0.1,1.6,0.4,2.2c0.3,0.7,1,1,1.7,1h0.2c0.9,0,1.4-0.5,1.6-0.9c0.1-0.2,0.2-0.5,0.3-0.8l0-0.2
		h0.3c0.6,0,1.1-0.5,1.1-1.1V8.4c0-0.7-0.4-1.1-1.1-1.2c-0.4,0-0.7-0.1-1.8-0.1c-0.8,0-1.3,0-1.8,0.1C70.3,7.3,70.1,7.7,70.1,8.4"/>
	<path class="st5" d="M74.3,8.9c0,0.1,0.1,0.2,0.2,0.2c0.4,0,0.6-0.2,0.6-0.6s-0.2-0.6-0.6-0.6c-0.1,0-0.2,0.1-0.2,0.2V8.9L74.3,8.9
		z"/>
	<path class="st6" d="M70.8,8.9c0,0.5,0.2,0.9,0.5,1.2c0.2,0.2,0.5,0.4,0.7,0.6c0.1,0,0.1,0.1,0.2,0.1c0.1,0,0.2,0,0.2-0.1
		c0.2-0.1,0.5-0.4,0.7-0.6c0.3-0.3,0.5-0.7,0.5-1.2c0-0.5-0.3-0.9-0.8-0.9c-0.3,0-0.5,0.2-0.6,0.4c-0.1-0.2-0.3-0.4-0.6-0.4
		C71.1,7.9,70.8,8.4,70.8,8.9"/>
</g>
</svg>
