<?xml version="1.0" encoding="utf-8"?>
<svg version="1.1" xmlns="http://www.w3.org/2000/svg" x="0px" y="0px" viewBox="0 0 75 75">
	<path fill="#002FA7" d="M22.4,73.8c0,0-8.7-18.2-11.4-24.6C8.2,42.8,0.6,22.5,0.6,22.5s17.8-8.7,24.1-11.4C31.2,8.3,51.9,0.7,51.9,0.7 s10.2,19.9,12.8,26.2c2.8,6.6,9,25.1,9,25.1s-19,10.5-25.5,13.3C41.9,68,22.4,73.8,22.4,73.8z"/>
	<path fill="#10265C" d="M53,74c0,0-19-8.9-25.5-11.4C21,60,1.1,53.5,1.1,53.5s8.9-19,11.4-25.4c2.6-6.6,9.1-26.4,9.1-26.4 S40.7,10.6,47,13.1c6.6,2.6,26.4,9.1,26.4,9.1S64.6,41,62,47.6C59.5,54,53,74,53,74z"/>
	<path fill="#1850B3" d="M37.5,69.4c17.5,0,31.7-14.2,31.7-31.7S55,6.1,37.5,6.1S5.8,20.3,5.8,37.8S20,69.4,37.5,69.4z"/>
	<path fill="#0A1A3A" d="M37.5,65.8c15.5,0,28-12.5,28-28s-12.5-28-28-28s-28,12.5-28,28S22,65.8,37.5,65.8z"/>
	<g>
		<path fill="#002FA7" d="M48.6,60c0,0-1.7-0.3-3.7-2.5c-2.7-2.9-6.5-14.3-4.4-16.2c2.2-1.8,11.7,3.4,14.3,6.3c2,2.3,2.5,5,2.5,5 s-1.3,4-2.6,5.3C53.2,59.2,48.6,60,48.6,60z"/>
		<path fill="#002FA7" d="M26.3,60c0,0-0.4-2.1,0-5c0.5-3.9,7.2-13.1,10-12.6s5.5,12.5,4.9,16.4c-0.5,3-1.2,3.7-1.2,3.7 s-5.6,1.5-7.4,1.2C30.6,63.5,26.3,60,26.3,60z"/>
		<path fill="#002FA7" d="M12.6,43.9c0,0,1.1-2.4,3.7-3.7c3.5-1.8,15.2-3,16.4-0.4S26,50.9,22.5,52.6c-2.7,1.3-5,0-5,0s-2.9-2-3.7-3.7 C13,47.2,12.6,43.9,12.6,43.9z"/>
		<path fill="#002FA7" d="M17.6,22.9c0,0,2.2,0.2,5,1.2c3.6,1.4,11.1,8.7,10,11.3c-1.1,2.6-12.6,2.5-16.2,1c-2.8-1.1-3.7-3.7-3.7-3.7 s-0.7-4-0.1-5.7C13.2,25.3,17.6,22.9,17.6,22.9z"/>
		<path fill="#002FA7" d="M37.4,13c0,0,1.7,2.1,2.5,5c1.1,3.8-1,13.9-3.8,14.6c-2.8,0.7-8.9-7.1-9.9-10.9c-0.8-2.9,0-6.2,0-6.2 s3.1-3.2,5-3.7C33,11.2,37.4,13,37.4,13z"/>
		<path fill="#002FA7" d="M57.3,21.6c0,0,0.5,2.6-1.2,5c-2.3,3.1-13.3,8.7-15.5,6.9s2-12.5,4.4-15.6c1.8-2.4,2.5-2.5,2.5-2.5 s5.2,0,6.8,1.1C55.6,17.7,57.3,21.6,57.3,21.6z"/>
		<path fill="#002FA7" d="M62.2,42.7c0,0-2,1-5,1.2c-3.9,0.3-14.8-3.5-14.9-6.4c-0.1-2.8,11-7,14.9-7.2c3-0.1,5,1.2,5,1.2 s1.7,3.5,1.9,5.4C64.2,38.8,62.2,42.7,62.2,42.7z"/>
	</g>
	<path fill="#1E59B7" d="M34.9,39c-0.5-1.2-1.3-2.4-0.6-3.4c0.4-0.7,1.1-0.2,1.9-0.4c1-0.4,2.1-1.3,3-0.9c0.8,0.4,1.5,1.1,1.9,2.1 c0.5,1.2-0.3,1.6-1,2.6c-0.4,0.6-0.5,2-1.2,2.3s-1.4,0.3-2.1,0.2C35.5,41.2,35.4,40.3,34.9,39z"/>
	<g>
		<path fill="#1850B3" d="M53.1,38.1c-0.3,0-10-0.2-10-0.4s9.7-0.4,10-0.4s0.5,0.2,0.5,0.4C53.6,38,53.4,38.1,53.1,38.1z"/>
		<path fill="#1850B3" d="M47.3,50.1c-0.2-0.2-6.2-7.8-6-8c0.2-0.1,6.4,7.3,6.6,7.5c0.2,0.2,0.2,0.5,0,0.6S47.5,50.4,47.3,50.1z"/>
		<path fill="#1850B3" d="M48.2,25.3c-0.2,0.2-6.7,7.4-6.8,7.3s6-7.6,6.2-7.8c0.2-0.2,0.5-0.3,0.6-0.1C48.5,24.7,48.4,25,48.2,25.3z"/>
		<path fill="#1850B3" d="M22.1,31.2c0.3,0.1,9.3,3.5,9.3,3.7s-9.3-2.9-9.5-3c-0.3-0.1-0.4-0.3-0.4-0.5C21.5,31.1,21.8,31.1,22.1,31.2z"
			/>
		<path fill="#1850B3" d="M22.2,44.3c0.3-0.1,9-4.2,9.1-4s-8.5,4.6-8.8,4.7c-0.3,0.1-0.5,0.1-0.6-0.1C21.8,44.7,21.9,44.4,22.2,44.3z"/>
		<path fill="#1850B3" d="M33.6,53.4c0-0.3,2-9.8,2.2-9.7c0.2,0-1.4,9.6-1.5,9.9c0,0.3-0.3,0.5-0.5,0.4S33.5,53.7,33.6,53.4z"/>
		<path fill="#1850B3" d="M34.1,21.1c0.1,0.3,1.9,9.8,1.7,9.8s-2.4-9.4-2.4-9.7c-0.1-0.3,0.1-0.5,0.3-0.6C33.8,20.6,34,20.8,34.1,21.1z"
			/>
	</g>
</svg>
