<svg width="571" height="571" viewBox="0 0 571 571" fill="none" xmlns="http://www.w3.org/2000/svg">
<path d="M170.539 561.864C170.539 561.864 104.303 423.301 83.7467 374.576C62.4293 325.851 4.568 171.3 4.568 171.3C4.568 171.3 140.085 105.064 188.049 84.508C237.536 63.1907 395.132 5.32935 395.132 5.32935C395.132 5.32935 472.788 156.835 492.583 204.799C513.9 255.047 561.103 395.893 561.103 395.893C561.103 395.893 416.449 475.833 366.963 497.151C318.999 517.707 170.539 561.864 170.539 561.864Z" fill="#002FA7"/>
<path d="M403.507 563.387C403.507 563.387 258.853 495.628 209.367 476.595C159.88 456.8 8.37466 407.313 8.37466 407.313C8.37466 407.313 76.1333 262.66 95.1667 213.935C114.961 163.687 164.448 12.9427 164.448 12.9427C164.448 12.9427 309.863 80.7014 357.827 99.7347C408.075 119.529 558.819 169.016 558.819 169.016C558.819 169.016 491.821 312.147 472.027 362.395C452.993 411.12 403.507 563.387 403.507 563.387Z" fill="#10265C"/>
<path d="M285.5 528.365C418.733 528.365 526.843 420.256 526.843 287.023C526.843 153.789 418.733 46.4413 285.5 46.4413C152.267 46.4413 44.1573 154.551 44.1573 287.784C44.1573 421.017 152.267 528.365 285.5 528.365Z" fill="#07142D"/>
<path d="M285.5 500.957C403.507 500.957 498.673 405.791 498.673 287.784C498.673 169.777 403.507 74.6107 285.5 74.6107C167.493 74.6107 72.3267 169.777 72.3267 287.784C72.3267 405.791 167.493 500.957 285.5 500.957Z" fill="#0A1A3A"/>
<path d="M370.008 456.8C370.008 456.8 357.065 454.516 341.839 437.767C321.283 415.688 292.352 328.896 308.34 314.431C325.089 300.727 397.416 340.316 417.211 362.395C432.437 379.905 436.244 400.461 436.244 400.461C436.244 400.461 426.347 430.915 416.449 440.812C405.029 450.709 370.008 456.8 370.008 456.8Z" fill="#002FA7"/>
<path d="M200.231 456.8C200.231 456.8 197.185 440.812 200.231 418.733C204.037 389.041 255.047 318.999 276.364 322.805C297.681 326.612 318.237 417.972 313.669 447.664C309.863 470.504 304.533 475.833 304.533 475.833C304.533 475.833 261.899 487.253 248.195 484.969C232.968 483.447 200.231 456.8 200.231 456.8Z" fill="#002FA7"/>
<path d="M95.928 334.225C95.928 334.225 104.303 315.953 124.097 306.056C150.744 292.352 239.82 283.216 248.956 303.011C258.092 322.805 197.947 387.519 171.3 400.461C150.744 410.359 133.233 400.461 133.233 400.461C133.233 400.461 111.155 385.235 105.064 372.292C98.9733 359.349 95.928 334.225 95.928 334.225Z" fill="#002FA7"/>
<path d="M133.995 174.345C133.995 174.345 150.744 175.868 172.061 183.481C199.469 194.14 256.569 249.717 248.195 269.512C239.82 289.307 152.267 288.545 124.859 277.125C103.541 268.751 96.6893 248.956 96.6893 248.956C96.6893 248.956 91.36 218.503 95.928 205.56C100.496 192.617 133.995 174.345 133.995 174.345Z" fill="#002FA7"/>
<path d="M284.739 98.9733C284.739 98.9733 297.681 114.961 303.772 137.04C312.147 165.971 296.159 242.865 274.841 248.195C253.524 253.524 207.083 194.14 199.469 165.209C193.379 143.131 199.469 118.007 199.469 118.007C199.469 118.007 223.071 93.644 237.536 89.8373C251.24 85.2693 284.739 98.9733 284.739 98.9733Z" fill="#002FA7"/>
<path d="M436.244 164.448C436.244 164.448 440.051 184.243 427.108 202.515C409.597 226.116 325.851 268.751 309.101 255.047C292.352 241.343 324.328 159.88 342.6 136.279C356.304 118.007 361.633 117.245 361.633 117.245C361.633 117.245 401.223 117.245 413.404 125.62C423.301 134.756 436.244 164.448 436.244 164.448Z" fill="#002FA7"/>
<path d="M473.549 325.089C473.549 325.089 458.323 332.703 435.483 334.225C405.791 336.509 322.805 307.579 322.044 285.5C321.283 264.183 405.791 232.207 435.483 230.684C458.323 229.923 473.549 239.82 473.549 239.82C473.549 239.82 486.492 266.467 488.015 280.932C488.776 295.397 473.549 325.089 473.549 325.089Z" fill="#002FA7"/>
<path d="M265.705 296.92C261.899 287.784 255.808 278.648 261.137 271.035C264.183 265.705 269.512 269.512 275.603 267.989C283.216 264.944 291.591 258.092 298.443 261.137C304.533 264.183 309.863 269.512 312.908 277.125C316.715 286.261 310.624 289.307 305.295 296.92C302.249 301.488 301.488 312.147 296.159 314.431C290.829 316.715 285.5 316.715 280.171 315.953C270.273 313.669 269.512 306.817 265.705 296.92Z" fill="#07142D"/>
<path opacity="0.8" d="M404.268 290.068C401.984 290.068 328.135 288.545 328.135 287.023C328.135 285.5 401.984 283.977 404.268 283.977C406.552 283.977 408.075 285.5 408.075 287.023C408.075 289.307 406.552 290.068 404.268 290.068Z" fill="#0A1A3A"/>
<path opacity="0.8" d="M360.111 381.428C358.588 379.905 312.908 322.044 314.431 320.521C315.953 319.76 363.156 376.099 364.679 377.621C366.201 379.144 366.201 381.428 364.679 382.189C363.156 382.951 361.633 383.712 360.111 381.428Z" fill="#0A1A3A"/>
<path opacity="0.8" d="M366.963 192.617C365.44 194.14 315.953 248.956 315.192 248.195C314.431 247.433 360.872 190.333 362.395 188.811C363.917 187.288 366.201 186.527 366.963 188.049C369.247 188.049 368.485 190.333 366.963 192.617Z" fill="#0A1A3A"/>
<path opacity="0.8" d="M168.255 237.536C170.539 238.297 239.059 264.183 239.059 265.705C239.059 267.228 168.255 243.627 166.732 242.865C164.448 242.104 163.687 240.581 163.687 239.059C163.687 236.775 165.971 236.775 168.255 237.536Z" fill="#0A1A3A"/>
<path opacity="0.8" d="M169.016 337.271C171.3 336.509 237.536 305.295 238.297 306.817C239.059 308.34 173.584 341.839 171.3 342.6C169.016 343.361 167.493 343.361 166.732 341.839C165.971 340.316 166.732 338.032 169.016 337.271Z" fill="#0A1A3A"/>
<path opacity="0.8" d="M255.808 406.552C255.808 404.268 271.035 331.941 272.557 332.703C274.08 332.703 261.899 405.791 261.137 408.075C261.137 410.359 258.853 411.881 257.331 411.12C255.808 410.359 255.047 408.836 255.808 406.552Z" fill="#0A1A3A"/>
<path opacity="0.8" d="M259.615 160.641C260.376 162.925 274.08 235.252 272.557 235.252C271.035 235.252 254.285 163.687 254.285 161.403C253.524 159.119 255.047 157.596 256.569 156.835C257.331 156.835 258.853 158.357 259.615 160.641Z" fill="#0A1A3A"/>
</svg>
