<svg width="75" height="75" viewBox="0 0 75 75" fill="none" xmlns="http://www.w3.org/2000/svg">
<path d="M22.3376 75C22.3376 75 13.4107 56.3394 10.6326 49.7923C7.83399 43.184 0 22.3478 0 22.3478C0 22.3478 18.2112 13.3801 24.7072 10.6224C31.3768 7.79314 52.6522 0 52.6522 0C52.6522 0 63.0805 20.4072 65.8178 26.8521C68.6674 33.5728 75 52.6522 75 52.6522C75 52.6522 55.5223 63.4482 48.8526 66.2774C42.3669 69.0351 22.3376 75 22.3376 75Z" fill="#FFA808"/>
<path d="M53.5528 74.5923C53.5528 74.5923 34.0445 65.4918 27.4259 62.8873C20.7461 60.2521 0.349121 53.5927 0.349121 53.5927C0.349121 53.5927 9.47005 34.0332 12.0644 27.476C14.7302 20.7349 21.3589 0.39917 21.3589 0.39917C21.3589 0.39917 40.9694 9.54053 47.4858 12.1042C54.278 14.7802 74.5627 21.3988 74.5627 21.3988C74.5627 21.3988 65.5132 40.7846 62.8576 47.5257C60.2633 54.0727 53.5528 74.5923 53.5528 74.5923Z" fill="#AA781B"/>
<path d="M37.479 69.0191C54.8982 69.0191 69.0192 54.8981 69.0192 37.4789C69.0192 20.0597 54.8982 5.93866 37.479 5.93866C20.0598 5.93866 5.93872 20.0597 5.93872 37.4789C5.93872 54.8981 20.0598 69.0191 37.479 69.0191Z" fill="#E0A648"/>
<path d="M37.5035 65.1189C53.0161 65.1189 65.5915 52.7721 65.5915 37.5416C65.5915 22.3111 53.0161 9.96429 37.5035 9.96429C21.9909 9.96429 9.41553 22.3111 9.41553 37.5416C9.41553 52.7721 21.9909 65.1189 37.5035 65.1189Z" fill="#F7DFBD"/>
<path d="M14.0146 35.2628C14.5705 35.8376 15.2488 36.3088 15.9554 36.4784C16.1344 36.5255 16.2946 36.5538 16.483 36.5726L17.1142 36.648C17.5288 36.714 17.9433 36.7893 18.3484 36.8742C19.1681 37.0438 20.0254 37.0815 20.7886 37.5055C20.9864 37.6186 21.156 37.7034 21.4104 37.8824L21.5611 37.9955C21.6176 38.0426 21.7778 38.2122 21.6742 38.1086C21.5517 38.0238 21.5234 38.0426 21.5046 38.0426C21.4952 38.0614 21.5799 38.1086 21.6742 38.1463C22.0416 38.2876 22.5315 38.4761 22.8612 38.8436L22.8141 39.0038C22.3525 39.1168 22.0133 39.2487 21.5705 39.3336C21.4575 39.3524 21.335 39.3807 21.1277 39.343C21.0147 39.3147 20.8828 39.2959 20.6943 39.1357C20.553 38.9943 20.6661 39.1451 20.6849 39.1545C20.7509 39.2016 20.7226 39.1922 20.7038 39.1922C20.5907 39.1828 20.374 39.1262 20.1856 39.0886C19.413 38.9284 18.7159 38.4761 17.9621 38.1745L16.8316 37.7411L16.2757 37.5338C16.0685 37.4678 15.8329 37.3736 15.6351 37.2699C14.8248 36.7893 14.2407 36.1203 13.8733 35.357L14.0146 35.2628Z" fill="#AA781B"/>
<path d="M18.2261 35.3664C18.8385 35.3758 19.4132 35.5643 19.9785 35.7527C20.5438 35.9412 21.0902 36.1579 21.6272 36.3747C21.891 36.4783 22.1642 36.5914 22.4186 36.6762C22.4846 36.7045 22.5317 36.7139 22.5882 36.7327C22.6259 36.7327 22.6165 36.7327 22.6636 36.7327L23.031 36.695C23.6057 36.6385 24.2935 36.516 25.0943 36.8741C25.2544 36.94 25.5842 37.1945 25.4617 37.0814C25.3958 37.0154 25.2639 37.0343 25.3015 37.0154L25.8668 36.5725C26.3661 36.1768 27.2046 35.847 27.996 35.96C28.1939 35.9789 28.3729 36.0354 28.5519 36.0825C28.7215 36.1391 28.8628 36.1862 29.0135 36.2522C29.3056 36.3935 29.6071 36.5443 29.8803 36.7516C30.1535 36.9495 30.3985 37.2039 30.5775 37.4395C30.7659 37.6939 30.8601 37.8823 31.1239 38.0331L31.1145 38.2027C30.7848 38.3346 30.3796 38.1556 30.1158 38.0614C29.8426 37.9483 29.5977 37.8823 29.3433 37.8164C29.0889 37.7693 28.844 37.7127 28.5802 37.6845L28.1939 37.6373C28.1091 37.6562 28.0055 37.6279 27.9112 37.6562C27.525 37.6845 27.2235 37.7787 26.7524 38.0143C26.498 38.1179 26.2814 38.2781 25.8103 38.4383C25.5842 38.5231 25.132 38.5514 24.8116 38.3535C24.4254 38.0896 24.5573 38.1368 24.4536 38.0708C24.2087 37.8823 23.6716 37.8258 23.0969 37.8258C22.9462 37.8164 22.7955 37.8164 22.5976 37.7975C22.5034 37.7881 22.3527 37.7504 22.249 37.7033C22.1737 37.6562 22.0794 37.6185 22.0229 37.5808C21.7403 37.43 21.4953 37.2793 21.2504 37.1285C20.2517 36.5254 19.2907 35.847 18.2073 35.536L18.2261 35.3664Z" fill="#AA781B"/>
<path d="M19.9973 35.2344C20.3741 35.3946 20.7981 35.4794 21.2126 35.5831L22.4751 35.8469L23.1252 36.0071C23.2382 36.0354 23.3513 36.0731 23.4832 36.1202C23.5397 36.139 23.6433 36.1956 23.7093 36.2333C23.7941 36.2992 23.8883 36.4123 23.9354 36.4783C23.9354 36.45 23.8883 36.4029 23.8977 36.4029C23.8883 36.384 24.1144 36.4877 24.2746 36.5254C24.4536 36.5725 24.6514 36.629 24.8399 36.6573L25.0189 36.7327C25.2732 36.8363 25.6501 36.9023 25.9233 36.8835C26.0646 36.8835 26.1871 36.8646 26.3002 36.8458L26.5263 36.8081C26.677 36.7798 26.8183 36.7704 26.9597 36.761C27.5249 36.7704 28.0243 36.9306 28.4482 37.2038C28.8533 37.4771 29.2773 37.8729 29.315 38.4194L29.1642 38.4948C28.778 38.3158 28.4105 38.3252 28.062 38.3063C27.7134 38.3158 27.3836 38.344 27.1198 38.4288C27.0539 38.4477 26.9973 38.4665 26.9408 38.4854C26.9125 38.5042 26.677 38.5608 26.564 38.5702C26.2719 38.6173 25.9798 38.5984 25.716 38.5325C25.1696 38.3911 24.7551 38.1838 24.3028 37.8729L24.4818 37.9483C24.2557 37.854 24.0485 37.7692 23.8318 37.6656C23.6057 37.5336 23.4172 37.4865 23.0969 37.1662C23.031 37.1662 22.9556 37.0625 22.9179 36.9965C22.9273 37.0248 22.9839 37.1002 23.031 37.1285C23.0121 37.119 23.031 37.1096 22.9839 37.0813C22.9179 37.0342 22.8331 36.9871 22.7483 36.94L22.183 36.6667C21.4293 36.2615 20.6097 35.9506 19.9031 35.3758L19.9973 35.2344Z" fill="#AA781B"/>
<path d="M25.2825 37.1568C25.1129 36.7893 24.9151 36.4312 24.6607 36.1862C24.4158 35.9412 24.1425 35.8282 23.973 35.8658C23.8128 35.9035 23.6997 36.158 23.3983 36.1862C23.0873 36.2333 22.7011 36.2993 22.0981 36.2522L21.9662 36.1391C21.9285 35.5078 22.1735 35.0555 22.5692 34.7068C22.9555 34.3487 23.6809 34.3016 24.3121 34.5561C24.9434 34.7916 25.2731 35.3287 25.405 35.7905C25.5181 36.271 25.5369 36.7139 25.4427 37.1474L25.2825 37.1568Z" fill="#AA781B"/>
<path d="M18 31.7668C18.9798 31.0318 20.0067 30.2026 21.4011 29.967C21.7497 29.9199 22.1077 29.9293 22.4657 29.9764C22.8426 30.0518 23.1346 30.1366 23.4267 30.2214L25.2356 30.7209C26.4415 31.0883 27.7134 31.3145 28.8534 32.1437C28.9947 32.238 29.136 32.3699 29.2773 32.4924C29.4092 32.6243 29.5882 32.7939 29.6542 32.8881C29.8332 33.1237 30.031 33.3404 30.2195 33.576C30.4267 33.8116 30.6246 34.0566 30.8319 34.3204C31.0014 34.5843 31.2935 34.9047 31.2181 35.3381H31.0485C30.8978 35.1308 30.6152 35.046 30.3419 34.9141C30.0687 34.7822 29.7672 34.6597 29.4846 34.4995C29.1925 34.3487 28.9193 34.1602 28.6461 33.9718C28.4859 33.8493 28.4294 33.821 28.3258 33.7551C28.2127 33.6985 28.1091 33.6326 27.9772 33.576C26.988 33.1237 25.9045 32.483 24.7834 31.993L23.0687 31.258C22.7766 31.126 22.4846 31.0035 22.2584 30.9282C22.0041 30.8528 21.7403 30.8057 21.4671 30.8057C20.3459 30.768 19.2059 31.3805 18.0848 31.9081L18 31.7668Z" fill="#AA781B"/>
<path d="M42.2222 34.9612C42.2504 34.1885 42.5613 33.5289 42.9005 32.8693C43.2585 32.2285 43.6919 31.5972 44.3702 31.126C44.7094 30.8905 45.2087 30.768 45.4537 30.6832C45.7552 30.5795 46.0567 30.4287 46.3676 30.278C46.9799 29.967 47.5923 29.6089 48.2612 29.2886C48.9207 28.9682 49.6179 28.6384 50.4281 28.4593C51.3138 28.2897 51.945 28.3557 52.6704 28.3745C53.377 28.4216 54.093 28.4876 54.8091 28.6101C55.5251 28.742 56.2505 28.8551 56.9571 29.2603L56.9006 29.4205C55.5157 29.6749 54.1119 29.967 52.6893 30.0707C52.0015 30.1366 51.2007 30.0989 50.6825 30.1178C50.0796 30.1366 49.4389 30.3157 48.7888 30.5324C48.1388 30.7585 47.4887 31.0318 46.8009 31.2862C46.4523 31.4087 46.1038 31.5312 45.7175 31.616C45.2747 31.7103 45.0674 31.7197 44.7942 31.8516C44.2478 32.106 43.7484 32.6054 43.3433 33.1426C42.9476 33.6891 42.5425 34.3016 42.3918 34.9518H42.2222V34.9612Z" fill="#AA781B"/>
<path d="M41.1292 36.5537C41.7415 36.2804 42.3822 36.1768 43.0134 36.0637C43.6446 35.96 44.2853 35.8658 44.9259 35.7998C46.2167 35.6773 47.498 35.6868 48.7227 35.5548C49.9287 35.4418 51.1817 35.0837 51.9448 34.735C52.6138 34.3487 53.3392 34.1602 54.027 34.1131C54.7241 34.066 55.4025 34.132 56.0525 34.3675V34.5372C54.8372 35.046 53.6689 35.47 52.9058 36.1391C51.4738 37.1379 50.0606 36.9023 48.7699 36.9212C47.4509 36.8835 46.1978 36.7045 44.9542 36.6573C43.7012 36.6008 42.4105 36.516 41.1951 36.7233L41.1292 36.5537Z" fill="#AA781B"/>
<path d="M48.1952 38.1933C48.7604 37.6939 49.3163 37.1756 49.891 36.6668C50.1831 36.4123 50.4657 36.1579 50.786 35.9129C50.8708 35.8564 50.965 35.7904 51.0781 35.7245C51.144 35.6868 51.2006 35.6491 51.2477 35.6114C51.3419 35.5454 51.4549 35.3947 51.4455 35.3758L52.1333 36.1014C51.4644 36.4783 50.786 36.7798 50.07 37.072C49.712 37.2227 49.3446 37.3452 48.9395 37.4583C48.7322 37.5148 48.5249 37.5619 48.28 37.5808L47.8277 37.6468L45.8398 37.9954C45.1427 38.1273 44.4361 38.231 43.7012 38.3912L43.5881 38.2687C44.0121 37.5337 44.6904 37.0814 45.3499 36.6856C46.0283 36.3087 46.7443 35.9883 47.5922 35.9035C47.79 35.8752 48.0727 35.8847 48.2329 35.8847C48.3553 35.8941 48.5061 35.9035 48.6662 35.8941C48.9771 35.8847 49.3163 35.8187 49.6555 35.7527C50.3338 35.602 51.0216 35.3664 51.6811 35.1402L53.2167 34.6125L52.3782 35.8658C52.171 36.1673 51.992 36.2804 51.7753 36.4218C51.6622 36.4689 51.5586 36.516 51.4455 36.5537C51.389 36.5725 51.323 36.6008 51.2477 36.6385C50.9274 36.7987 50.5976 36.9871 50.2773 37.1756C49.6272 37.5619 48.9771 37.9671 48.2988 38.3252L48.1952 38.1933Z" fill="#AA781B"/>
<path d="M61.1873 33.0201C60.6126 33.4535 60.0756 33.9152 59.5668 34.4241C59.0581 34.9141 58.5682 35.4229 58.0971 35.9412C57.5884 36.4595 57.4188 37.0625 56.6745 37.5808C56.3259 37.8069 55.949 38.0048 55.5157 38.0896C55.1105 38.1744 54.5735 38.2121 54.1873 37.8917L54.2249 37.7221C54.8279 37.3169 55.1294 36.7704 55.5533 36.2993C55.7606 36.0543 55.9208 35.8658 56.2599 35.5831C56.5803 35.3475 56.8818 35.1308 57.1927 34.9141C57.7956 34.4712 58.4174 34.0754 59.0769 33.7268C59.7364 33.3876 60.4053 33.0672 61.1119 32.8599L61.1873 33.0201Z" fill="#AA781B"/>
<path d="M44.6528 35.6962C44.6999 35.1685 44.8789 34.6596 45.2087 34.1696C45.3877 33.9341 45.6138 33.7079 45.9153 33.5383C46.1979 33.3781 46.5936 33.2933 46.8763 33.2839C47.1872 33.2556 47.5169 33.2556 47.8749 33.3216C48.2235 33.397 48.5533 33.5948 48.7888 33.8869C49.241 34.4712 49.3164 35.291 48.8547 35.8281L48.6852 35.8375C48.1953 35.3852 47.8749 35.2156 47.6111 35.1119C47.3662 35.0366 47.2154 34.7444 46.8197 34.6408C46.6125 34.5937 46.5088 34.5748 46.3298 34.5937C46.1602 34.6031 45.9812 34.6691 45.8022 34.7821C45.4348 34.9894 45.1051 35.3569 44.813 35.7527L44.6528 35.6962Z" fill="#AA781B"/>
<path d="M31.2085 49.6046C30.973 49.3784 30.7657 49.1146 30.6338 48.7848C30.5114 48.4644 30.5114 48.0215 30.7375 47.6823C31.1991 47.0415 31.9528 46.8154 32.65 46.7588C34.0444 46.7117 35.3162 47.1169 36.5504 47.654C36.8708 47.8142 37.144 47.9084 37.5397 48.2288L37.615 48.3042C37.6716 48.3702 37.5679 48.2383 37.5303 48.2194C37.4172 48.1346 37.2382 48.0969 37.1534 48.1063C36.9838 48.1158 36.9744 48.144 36.9932 48.1252L37.1911 47.899C37.5303 47.4844 37.9071 46.9756 38.3782 46.5138C38.642 46.2783 38.8304 46.0615 39.2732 45.7788C39.3957 45.7317 39.537 45.5715 40.0175 45.6281C40.2342 45.6846 40.2342 45.7129 40.3472 45.76C40.5074 45.8354 40.6581 45.9296 40.7995 46.0333C41.0915 46.2217 41.3553 46.4479 41.6003 46.7023C41.8264 46.9661 42.0902 47.2677 42.109 47.6729L41.9489 47.72C41.5061 47.3619 40.8842 47.2771 40.319 47.1263L39.895 47.051C39.8573 47.051 39.7066 47.0133 39.7725 47.0415C40.1023 47.0792 40.0834 46.9944 40.0834 47.0415C40.0175 47.1263 39.8008 47.3996 39.6501 47.6352C39.292 48.1252 38.9152 48.6152 38.3688 49.0957C38.2274 49.2182 38.0861 49.3407 37.8506 49.4727C37.7375 49.5292 37.5868 49.6329 37.257 49.6611C37.0969 49.68 36.8331 49.6234 36.6635 49.4915C36.5975 49.4538 36.4562 49.2936 36.4845 49.3313V49.2936C36.4185 49.19 36.1265 48.9827 35.9098 48.8413C34.9205 48.2383 33.7806 47.7106 32.65 47.5975C32.3768 47.5786 32.0941 47.5692 31.8398 47.6352C31.5854 47.7011 31.3122 47.8142 31.152 47.9838C30.8034 48.3136 30.973 48.9921 31.3216 49.4821L31.2085 49.6046Z" fill="#AA781B"/>
</svg>
